<?xml version="1.0" encoding="UTF-8"?>
<svg version="1.1" xmlns="http://www.w3.org/2000/svg" width="60" height="60">
<path d="M0 0 C2.31252677 1.05036641 4.53758121 2.20481535 6.77416992 3.40795898 C7.54954102 3.79532227 8.32491211 4.18268555 9.1237793 4.58178711 C14.71664214 7.54213883 14.71664214 7.54213883 15.97338867 11.02124023 C15.96952148 11.74698242 15.9656543 12.47272461 15.96166992 13.22045898 C12.34470529 16.26490594 8.66339889 18.68876386 4.52416992 20.97045898 C2.88641602 21.89084961 2.88641602 21.89084961 1.21557617 22.82983398 C-2.38055515 24.36671604 -4.18225828 24.81220837 -8.03833008 24.22045898 C-10.93104365 22.98973422 -13.5919985 21.4553566 -16.28833008 19.84545898 C-17.00762695 19.43295898 -17.72692383 19.02045898 -18.46801758 18.59545898 C-21.29614133 16.9536643 -23.71544062 15.54334844 -26.03833008 13.22045898 C-26.17504883 10.89624023 -26.17504883 10.89624023 -25.03833008 8.22045898 C-22.50684023 6.22937331 -19.72437566 4.84353745 -16.85083008 3.40795898 C-16.09479492 3.00125977 -15.33875977 2.59456055 -14.55981445 2.17553711 C-9.51448086 -0.42808257 -5.60266093 -2.14268731 0 0 Z " fill="#D9AC4F" transform="translate(35.038330078125,5.779541015625)"/>
<path d="M0 0 C2.3021725 2.3021725 1.23290137 7.78442274 1.25 10.875 C1.270625 11.79925781 1.29125 12.72351563 1.3125 13.67578125 C1.31765625 14.56394531 1.3228125 15.45210937 1.328125 16.3671875 C1.34214355 17.59091064 1.34214355 17.59091064 1.35644531 18.83935547 C0.91110768 21.53883356 0.1230296 22.32449293 -2 24 C-4.27785169 25.30682646 -6.52927286 26.5195132 -8.875 27.6875 C-9.48730469 28.00783203 -10.09960938 28.32816406 -10.73046875 28.65820312 C-14.26153869 30.43129927 -17.03566187 31.60388663 -21 31 C-23.99459874 28.00540126 -23.36830364 24.69526936 -23.375 20.6875 C-23.39949219 19.92759766 -23.42398437 19.16769531 -23.44921875 18.38476562 C-23.46861946 14.66306318 -23.27456455 12.48436695 -21.41015625 9.1953125 C-18.54374872 6.58441942 -15.53198066 4.84363777 -12.0625 3.1875 C-11.45470703 2.87619141 -10.84691406 2.56488281 -10.22070312 2.24414062 C-6.69847753 0.5153244 -3.93175975 -0.48513426 0 0 Z " fill="#8F5206" transform="translate(54,24)"/>
<path d="M0 0 C5.29291734 0.3884106 9.11792968 1.77356005 13.75 4.3125 C15.41289063 5.20388672 15.41289063 5.20388672 17.109375 6.11328125 C21.53341864 9.00086649 21.53341864 9.00086649 23 12 C23.3927231 14.88685269 23.37350322 17.71636665 23.3125 20.625 C23.31733398 21.78902344 23.31733398 21.78902344 23.32226562 22.9765625 C23.26730253 28.73269747 23.26730253 28.73269747 21 31 C15.63980067 30.73166279 11.83236497 29.16340809 7.1875 26.5625 C6.06730469 25.94503906 4.94710938 25.32757813 3.79296875 24.69140625 C1 23 1 23 -1 21 C-1.24291992 18.95288086 -1.24291992 18.95288086 -1.23046875 16.46484375 C-1.22853516 15.57345703 -1.22660156 14.68207031 -1.22460938 13.76367188 C-1.21236328 12.83103516 -1.20011719 11.89839844 -1.1875 10.9375 C-1.18685547 10.00099609 -1.18621094 9.06449219 -1.18554688 8.09960938 C-1.14019224 1.14019224 -1.14019224 1.14019224 0 0 Z " fill="#8F5206" transform="translate(6,24)"/>
</svg>
