<?xml version="1.0" standalone="no"?>
<!DOCTYPE svg PUBLIC "-//W3C//DTD SVG 20010904//EN"
 "http://www.w3.org/TR/2001/REC-SVG-20010904/DTD/svg10.dtd">
<svg version="1.0" xmlns="http://www.w3.org/2000/svg"
 width="512.000000pt" height="512.000000pt" viewBox="0 0 512.000000 512.000000"
 preserveAspectRatio="xMidYMid meet">

<g transform="translate(0.000000,512.000000) scale(0.100000,-0.100000)"
fill="#000000" stroke="none">
<path d="M825 5106 c-39 -17 -70 -52 -90 -99 -13 -31 -14 -51 -5 -120 5 -45
10 -85 10 -89 0 -5 -42 -8 -92 -8 -137 0 -223 -16 -303 -54 -130 -62 -225
-172 -267 -309 -18 -62 -20 -86 -15 -226 15 -470 208 -898 558 -1237 137 -132
275 -231 434 -312 54 -27 66 -40 121 -123 184 -281 461 -506 774 -630 l110
-43 0 -301 c0 -335 -4 -366 -65 -460 -49 -77 -64 -86 -160 -100 -197 -29 -344
-146 -416 -330 -21 -56 -23 -78 -27 -295 -3 -232 -3 -236 20 -279 17 -31 38
-52 68 -68 l43 -23 1037 0 1037 0 43 23 c30 16 51 37 67 67 22 41 23 53 23
249 0 225 -10 291 -56 386 -72 147 -229 254 -399 271 -77 8 -103 25 -150 99
-61 94 -65 125 -65 460 l0 301 110 43 c190 75 369 188 520 329 90 83 217 236
273 329 35 58 45 66 135 113 189 99 410 281 552 455 251 308 394 686 407 1076
5 140 3 164 -15 226 -42 137 -137 247 -267 309 -80 38 -166 54 -302 54 -68 0
-93 3 -93 13 1 6 5 44 10 82 11 83 1 131 -37 176 -53 63 67 59 -1795 59 -1397
-1 -1708 -3 -1733 -14z m-45 -665 c0 -26 141 -1269 146 -1283 11 -36 -16 -16
-113 85 -261 271 -413 628 -417 978 -1 121 0 126 26 161 44 58 75 68 226 68
72 0 132 -4 132 -9z m3878 -19 c18 -13 42 -42 54 -65 19 -38 20 -52 14 -156
-20 -363 -163 -689 -417 -955 -98 -103 -126 -124 -115 -88 5 15 146 1257 146
1284 0 6 56 8 143 6 130 -3 145 -5 175 -26z m-2007 -124 c27 -18 53 -60 125
-203 87 -171 93 -180 125 -186 19 -4 105 -17 193 -30 167 -24 198 -36 239 -91
28 -37 34 -116 12 -162 -10 -20 -78 -95 -153 -167 l-135 -131 32 -189 c21
-120 31 -202 27 -225 -15 -75 -112 -143 -186 -129 -19 4 -110 46 -202 93
l-167 87 -181 -92 c-99 -51 -190 -93 -201 -93 -77 0 -162 65 -174 134 -5 23 5
104 26 225 l32 190 -135 130 c-151 145 -173 179 -166 253 9 92 65 138 189 156
46 7 133 20 192 29 l108 16 90 178 c74 148 95 182 126 204 51 34 135 35 184 3z
m81 -2828 c4 -327 5 -339 53 -452 7 -17 -8 -18 -225 -18 -217 0 -232 1 -225
18 48 113 49 125 53 452 l3 315 169 0 169 0 3 -315z"/>
</g>
</svg>
