<?xml version="1.0" encoding="UTF-8"?>
<svg version="1.1" xmlns="http://www.w3.org/2000/svg" width="60" height="60">
<path d="M0 0 C4.18772589 0.99182982 7.93452596 2.86098319 11.77734375 4.76953125 C15.51299247 5.88367209 17.1274839 5.14263104 20.671875 3.6328125 C33.49985482 -1.15021555 33.49985482 -1.15021555 39.671875 0.6328125 C41.71700553 2.67794303 40.83592179 6.94186428 40.83984375 9.75390625 C40.84483635 10.9765493 40.84483635 10.9765493 40.84992981 12.22389221 C40.85500242 13.95142043 40.85733803 15.67895848 40.85717773 17.40649414 C40.85936292 20.05566495 40.87751121 22.70441866 40.89648438 25.35351562 C40.89941844 27.0286444 40.90140315 28.70377517 40.90234375 30.37890625 C40.90952927 31.17477646 40.91671478 31.97064667 40.92411804 32.79063416 C40.90069727 38.40399023 40.90069727 38.40399023 38.671875 40.6328125 C36.31728286 41.35170528 33.99756415 41.98855554 31.609375 42.5703125 C27.25870288 43.63807868 23.18020733 44.79867471 19.109375 46.6953125 C12.78136264 48.93224692 6.48545439 45.05457975 0.671875 42.6328125 C-1.09275085 42.03096194 -2.86272939 41.44425322 -4.640625 40.8828125 C-8.328125 39.6328125 -8.328125 39.6328125 -9.328125 38.6328125 C-9.45392306 35.91728973 -9.51677906 33.22856823 -9.53125 30.51171875 C-9.53695007 29.69662338 -9.54265015 28.88152802 -9.54852295 28.04173279 C-9.55798627 26.31421208 -9.5645122 24.58667321 -9.56835938 22.85913086 C-9.57807187 20.20980524 -9.60908464 17.56125292 -9.640625 14.91210938 C-9.64715403 13.23698379 -9.65240489 11.56185264 -9.65625 9.88671875 C-9.6685968 9.09084854 -9.6809436 8.29497833 -9.69366455 7.47499084 C-9.68457031 5.24047852 -9.68457031 5.24047852 -9.328125 1.6328125 C-5.84478468 -0.68941438 -4.05846225 -0.51725499 0 0 Z " fill="#D9AC4F" transform="translate(14.328125,6.3671875)"/>
<path d="M0 0 C4.89659663 1.12998384 12.05832657 2.98801407 15.69140625 6.62109375 C15.78011898 9.65087179 15.80659975 12.65776397 15.7890625 15.6875 C15.78764755 16.59612289 15.7862326 17.50474579 15.78477478 18.44090271 C15.77915818 21.35516596 15.7666029 24.26935356 15.75390625 27.18359375 C15.74889339 29.15429577 15.74433011 31.12499899 15.74023438 33.09570312 C15.72918336 37.93752934 15.71190763 42.7792987 15.69140625 47.62109375 C14.67095215 47.28045898 13.65049805 46.93982422 12.59912109 46.58886719 C11.24186536 46.13605758 9.88460605 45.68325867 8.52734375 45.23046875 C7.85695068 45.00665527 7.18655762 44.7828418 6.49584961 44.55224609 C3.58019296 43.57976685 0.66351455 42.6120196 -2.25927734 41.66113281 C-8.20671147 39.72297603 -8.20671147 39.72297603 -9.30859375 38.62109375 C-9.43439181 35.90557098 -9.49724781 33.21684948 -9.51171875 30.5 C-9.51741882 29.68490463 -9.5231189 28.86980927 -9.5289917 28.03001404 C-9.53845502 26.30249333 -9.54498095 24.57495446 -9.54882812 22.84741211 C-9.55854062 20.19808649 -9.58955339 17.54953417 -9.62109375 14.90039062 C-9.62762278 13.22526504 -9.63287364 11.55013389 -9.63671875 9.875 C-9.64906555 9.07912979 -9.66141235 8.28325958 -9.6741333 7.46327209 C-9.66503906 5.22875977 -9.66503906 5.22875977 -9.30859375 1.62109375 C-5.83100005 -0.69730205 -4.05184724 -0.54069131 0 0 Z " fill="#8F5206" transform="translate(14.30859375,6.37890625)"/>
<path d="M0 0 C3.63 0 7.26 0 11 0 C10.67 1.32 10.34 2.64 10 4 C7.03 4 4.06 4 1 4 C0.67 2.68 0.34 1.36 0 0 Z " fill="#D0A247" transform="translate(12,27)"/>
<path d="M0 0 C2.31 0 4.62 0 7 0 C7.33 1.32 7.66 2.64 8 4 C5.03 4 2.06 4 -1 4 C-0.67 2.68 -0.34 1.36 0 0 Z " fill="#D1A247" transform="translate(13,19)"/>
</svg>
