<?xml version="1.0" encoding="UTF-8"?>
<svg version="1.1" xmlns="http://www.w3.org/2000/svg" width="60" height="59">
<path d="M0 0 C4.55682251 3.23086186 8.72531078 7.45883037 10.625 12.8125 C10.75 15.5625 10.75 15.5625 10.625 17.8125 C11.945 18.1425 13.265 18.4725 14.625 18.8125 C14.65198189 20.43740954 14.67138757 22.06244633 14.6875 23.6875 C14.69910156 24.59242187 14.71070313 25.49734375 14.72265625 26.4296875 C14.625 28.8125 14.625 28.8125 13.625 30.8125 C12.965 30.8125 12.305 30.8125 11.625 30.8125 C11.5321875 31.8334375 11.5321875 31.8334375 11.4375 32.875 C10.04211007 37.91987127 7.73534275 41.49223631 3.24609375 44.30078125 C0.73478832 45.56953317 -1.77858231 46.729307 -4.375 47.8125 C-5.24511719 48.18503906 -6.11523438 48.55757812 -7.01171875 48.94140625 C-9.6144113 49.90074582 -11.6234365 49.9697322 -14.375 49.8125 C-15 47.4375 -15 47.4375 -15.375 44.8125 C-14.715 44.1525 -14.055 43.4925 -13.375 42.8125 C-10.75 43.1875 -10.75 43.1875 -8.375 43.8125 C-8.375 44.4725 -8.375 45.1325 -8.375 45.8125 C-1.43684059 43.60490383 3.74617896 41.21413146 7.625 34.8125 C7.625 34.1525 7.625 33.4925 7.625 32.8125 C7.068125 33.740625 6.51125 34.66875 5.9375 35.625 C3.66712145 38.7544407 2.02991897 40.11004051 -1.375 41.8125 C-1.045 41.049375 -0.715 40.28625 -0.375 39.5 C1.41157118 32.91201877 1.76678876 26.44621102 -1.25 20.1875 C-2.97903248 16.79439529 -2.97903248 16.79439529 -5.375 15.8125 C-5.6225 16.575625 -5.87 17.33875 -6.125 18.125 C-7.5615514 21.2135855 -8.49489065 22.0527003 -11.375 23.8125 C-14.57421875 24.69140625 -14.57421875 24.69140625 -18.0625 25.375 C-20.17988682 25.79188261 -22.28968577 26.25699788 -24.375 26.8125 C-25.91097454 29.88444908 -25.6015038 32.41494293 -25.375 35.8125 C-23.99285878 39.16411246 -23.99285878 39.16411246 -22.375 41.8125 C-27.04996012 40.6103674 -28.83883341 38.27117887 -31.45703125 34.46875 C-32.375 32.8125 -32.375 32.8125 -32.375 30.8125 C-33.179375 30.833125 -33.98375 30.85375 -34.8125 30.875 C-37.375 30.8125 -37.375 30.8125 -38.375 29.8125 C-38.44744053 27.79285801 -38.45877188 25.77082876 -38.4375 23.75 C-38.42847656 22.64527344 -38.41945312 21.54054688 -38.41015625 20.40234375 C-38.39855469 19.54769531 -38.38695312 18.69304688 -38.375 17.8125 C-37.385 17.8125 -36.395 17.8125 -35.375 17.8125 C-35.2925 16.78125 -35.21 15.75 -35.125 14.6875 C-33.9637139 8.68752182 -30.96230097 4.65478375 -26.125 0.91796875 C-18.09816367 -4.15255509 -8.31767609 -4.84022959 0 0 Z M-30.24609375 9.03125 C-31.46273549 10.95093386 -31.95126049 12.59152052 -32.375 14.8125 C-31.715 14.090625 -31.055 13.36875 -30.375 12.625 C-24.73820505 7.15996334 -20.45167034 4.48983525 -12.375 4.1875 C-4.29832966 4.48983525 -0.01179495 7.15996334 5.625 12.625 C6.285 13.346875 6.945 14.06875 7.625 14.8125 C7.20381875 10.0391125 5.09231703 6.96853669 1.625 3.8125 C-9.37652652 -4.29520095 -22.02065273 -0.83031417 -30.24609375 9.03125 Z M-33.375 15.8125 C-32.375 17.8125 -32.375 17.8125 -32.375 17.8125 Z " fill="#D8AB4E" transform="translate(42.375,6.1875)"/>
<path d="M0 0 C4.55682251 3.23086186 8.72531078 7.45883037 10.625 12.8125 C10.75 15.5625 10.75 15.5625 10.625 17.8125 C11.945 18.1425 13.265 18.4725 14.625 18.8125 C14.65198189 20.43740954 14.67138757 22.06244633 14.6875 23.6875 C14.69910156 24.59242187 14.71070313 25.49734375 14.72265625 26.4296875 C14.625 28.8125 14.625 28.8125 13.625 30.8125 C12.965 30.8125 12.305 30.8125 11.625 30.8125 C11.5321875 31.8334375 11.5321875 31.8334375 11.4375 32.875 C10.04211007 37.91987127 7.73534275 41.49223631 3.24609375 44.30078125 C0.73478832 45.56953317 -1.77858231 46.729307 -4.375 47.8125 C-5.24511719 48.18503906 -6.11523438 48.55757812 -7.01171875 48.94140625 C-9.6144113 49.90074582 -11.6234365 49.9697322 -14.375 49.8125 C-15 47.4375 -15 47.4375 -15.375 44.8125 C-14.715 44.1525 -14.055 43.4925 -13.375 42.8125 C-10.75 43.1875 -10.75 43.1875 -8.375 43.8125 C-8.375 44.4725 -8.375 45.1325 -8.375 45.8125 C-1.45360966 43.61023944 3.80710663 41.23670435 7.625 34.8125 C8.37982383 32.73526212 8.37982383 32.73526212 8.625 30.8125 C8.295 30.4825 7.965 30.1525 7.625 29.8125 C7.6309215 27.60378156 7.6802855 25.3951259 7.75 23.1875 C7.78768544 15.76346863 7.15844051 11.82524007 2.3125 6.0625 C-3.19029987 1.45550476 -7.5359793 0.24331185 -14.625 0.46484375 C-20.21882685 1.17201788 -24.44011147 3.49392901 -28.25 7.625 C-32.9539271 14.68089065 -32.61707499 21.62229615 -32.375 29.8125 C-34.03114657 30.19468767 -35.69957024 30.52645102 -37.375 30.8125 C-38.375 29.8125 -38.375 29.8125 -38.47265625 27.08984375 C-38.46105469 25.98769531 -38.44945312 24.88554687 -38.4375 23.75 C-38.42847656 22.64527344 -38.41945312 21.54054688 -38.41015625 20.40234375 C-38.39855469 19.54769531 -38.38695312 18.69304688 -38.375 17.8125 C-37.385 17.8125 -36.395 17.8125 -35.375 17.8125 C-35.2925 16.78125 -35.21 15.75 -35.125 14.6875 C-33.9637139 8.68752182 -30.96230097 4.65478375 -26.125 0.91796875 C-18.09816367 -4.15255509 -8.31767609 -4.84022959 0 0 Z " fill="#8F5206" transform="translate(42.375,6.1875)"/>
<path d="M0 0 C0.33 0.99 0.66 1.98 1 3 C-2 5 -2 5 -5.1875 4.625 C-6.115625 4.41875 -7.04375 4.2125 -8 4 C-8.33 3.01 -8.66 2.02 -9 1 C-7.88625 1.020625 -6.7725 1.04125 -5.625 1.0625 C-2.16784079 1.26380718 -2.16784079 1.26380718 0 0 Z " fill="#D9AC4F" transform="translate(34,42)"/>
</svg>
