<?xml version="1.0" encoding="UTF-8"?>
<svg version="1.1" xmlns="http://www.w3.org/2000/svg" width="80" height="80">
<path d="M0 0 C1.22822479 -0.00855011 1.22822479 -0.00855011 2.48126221 -0.01727295 C4.21275549 -0.02670585 5.94426658 -0.03325013 7.67578125 -0.03710938 C10.30501238 -0.0467899 12.93345298 -0.07781855 15.5625 -0.109375 C17.24999539 -0.11590838 18.93749634 -0.12115753 20.625 -0.125 C21.40236511 -0.1373468 22.17973022 -0.1496936 22.98065186 -0.16241455 C28.47816453 -0.14033619 32.56078018 0.9133392 37.578125 3.203125 C41.31326805 7.12981385 42.69565658 9.67941702 42.75512695 15.01660156 C42.77437981 16.51891327 42.77437981 16.51891327 42.79402161 18.05157471 C42.80140854 19.13799255 42.80879547 20.2244104 42.81640625 21.34375 C42.824478 22.45868835 42.83254974 23.57362671 42.84086609 24.72235107 C42.85471559 27.08620647 42.86543385 29.45008194 42.87329102 31.81396484 C42.89048885 35.42454104 42.93436686 39.03419825 42.97851562 42.64453125 C42.98864365 44.94009743 42.99715941 47.2356714 43.00390625 49.53125 C43.02141434 50.60957092 43.03892242 51.68789185 43.05696106 52.79888916 C43.03930211 58.92037551 42.71750964 62.56974753 38.578125 67.203125 C33.00776915 71.24163299 27.86295366 71.36996222 21.15625 71.40625 C20.33743347 71.41195007 19.51861694 71.41765015 18.67498779 71.42352295 C16.94349451 71.43295585 15.21198342 71.43950013 13.48046875 71.44335938 C10.85123762 71.4530399 8.22279702 71.48406855 5.59375 71.515625 C3.90625461 71.52215838 2.21875366 71.52740753 0.53125 71.53125 C-0.24611511 71.5435968 -1.02348022 71.5559436 -1.82440186 71.56866455 C-7.32191453 71.54658619 -11.40453018 70.4929108 -16.421875 68.203125 C-20.15701805 64.27643615 -21.53940658 61.72683298 -21.59887695 56.38964844 C-21.61812981 54.88733673 -21.61812981 54.88733673 -21.63777161 53.35467529 C-21.64515854 52.26825745 -21.65254547 51.1818396 -21.66015625 50.0625 C-21.67226387 48.39009247 -21.67226387 48.39009247 -21.68461609 46.68389893 C-21.69846559 44.32004353 -21.70918385 41.95616806 -21.71704102 39.59228516 C-21.73423885 35.98170896 -21.77811686 32.37205175 -21.82226562 28.76171875 C-21.83239365 26.46615257 -21.84090941 24.1705786 -21.84765625 21.875 C-21.87391838 20.25751862 -21.87391838 20.25751862 -21.90071106 18.60736084 C-21.88305211 12.48587449 -21.56125964 8.83650247 -17.421875 4.203125 C-11.85151915 0.16461701 -6.70670366 0.03628778 0 0 Z " fill="#E7C97F" transform="translate(29.421875,3.796875)"/>
<path d="M0 0 C6.15801319 0 9.77839188 0.11676421 15 3 C19.22853643 7.44538446 20.12584565 10.06903126 20.09765625 16.1015625 C20.09443359 17.31328125 20.09121094 18.525 20.08789062 19.7734375 C20.07532227 21.67996094 20.07532227 21.67996094 20.0625 23.625 C20.05798828 24.90375 20.05347656 26.1825 20.04882812 27.5 C20.03701203 30.66671292 20.02053815 33.83333356 20 37 C11.85528844 35.50652849 3.87963274 33.48328657 -4.125 31.375 C-5.36765625 31.05015625 -6.6103125 30.7253125 -7.890625 30.390625 C-10.92776069 29.5962972 -13.96418794 28.79936874 -17 28 C-15.64062915 25.1394109 -14.35479531 23.14072301 -12 21 C-9.47459884 22.08231478 -7.93352122 23.06855624 -6 25.0625 C-3.95667711 27.3655794 -3.95667711 27.3655794 0 28 C0 18.76 0 9.52 0 0 Z " fill="#ECC685" transform="translate(52,4)"/>
<path d="M0 0 C7.92 0 15.84 0 24 0 C24 9.24 24 18.48 24 28 C19 27 19 27 16.5 24.375 C14.27761914 21.76344741 14.27761914 21.76344741 11.5625 21.8125 C7.86445851 23.52622654 5.74722897 25.99721485 3 29 C2.01 28.67 1.02 28.34 0 28 C0 18.76 0 9.52 0 0 Z " fill="#92560A" transform="translate(28,4)"/>
<path d="M0 0 C0 8.25 0 16.5 0 25 C-2 26 -2 26 -4.5 25.1875 C-5.655 24.795625 -6.81 24.40375 -8 24 C-13.94241971 22.55087106 -13.94241971 22.55087106 -20 22 C-20.62247839 11.31412104 -20.62247839 11.31412104 -18.3125 6.4375 C-12.57488612 0.38974483 -8.16168634 0 0 0 Z " fill="#E6BE7A" transform="translate(28,4)"/>
<path d="M0 0 C0.33 0 0.66 0 1 0 C0.58781909 5.25530665 -0.06962644 8.37196287 -4 12 C-9.799406 14.60171291 -14.50005259 15.44855872 -20.8125 15.3984375 C-22.03223511 15.40274277 -22.03223511 15.40274277 -23.27661133 15.40713501 C-24.98421939 15.40916319 -26.69185134 15.40372118 -28.39941406 15.39111328 C-30.99337369 15.37504106 -33.58577556 15.39100393 -36.1796875 15.41015625 C-37.84896173 15.4081736 -39.51823499 15.40432946 -41.1875 15.3984375 C-41.95231689 15.40451019 -42.71713379 15.41058289 -43.50512695 15.4168396 C-49.89013373 15.33461907 -55.65219474 14.22740499 -60.4375 9.6875 C-62.15701316 6.72993737 -62.68489031 4.38742917 -63 1 C-62.46375 1.7425 -61.9275 2.485 -61.375 3.25 C-58.35018587 6.75241636 -55.53543721 9.57671809 -50.79928589 10.36740112 C-48.17937459 10.5116029 -45.58853893 10.52827845 -42.96484375 10.49609375 C-42.00856583 10.49754898 -41.0522879 10.49900421 -40.06703186 10.50050354 C-38.05238792 10.49884873 -36.03773079 10.48733445 -34.02319336 10.46655273 C-30.94395171 10.43756074 -27.86642931 10.44596036 -24.78710938 10.45898438 C-22.82551249 10.45274749 -20.86392102 10.44435693 -18.90234375 10.43359375 C-17.98452621 10.43652939 -17.06670868 10.43946503 -16.12107849 10.44248962 C-11.26384399 10.37094735 -7.9391675 10.16225332 -4 7 C-1.91317931 4.61506207 -1.01148698 3.03446095 0 0 Z " fill="#A77728" transform="translate(71,60)"/>
<path d="M0 0 C10.56 0 21.12 0 32 0 C32 1.32 32 2.64 32 4 C21.44 4 10.88 4 0 4 C0 2.68 0 1.36 0 0 Z " fill="#8F5206" transform="translate(28,56)"/>
<path d="M0 0 C5.61 0 11.22 0 17 0 C17.33 1.32 17.66 2.64 18 4 C17 5 17 5 15.23413086 5.11352539 C14.48526611 5.10828857 13.73640137 5.10305176 12.96484375 5.09765625 C12.15595703 5.09443359 11.34707031 5.09121094 10.51367188 5.08789062 C9.66353516 5.07951172 8.81339844 5.07113281 7.9375 5.0625 C7.08349609 5.05798828 6.22949219 5.05347656 5.34960938 5.04882812 C3.23304337 5.03700373 1.11651315 5.01906769 -1 5 C-0.67 3.35 -0.34 1.7 0 0 Z " fill="#93570B" transform="translate(43,42)"/>
</svg>
