<?xml version="1.0" encoding="UTF-8"?>
<svg version="1.1" xmlns="http://www.w3.org/2000/svg" width="60" height="60">
<path d="M0 0 C5.94 0 11.88 0 18 0 C18.66 1.32 19.32 2.64 20 4 C20.928125 4.12375 21.85625 4.2475 22.8125 4.375 C26.47360081 5.0928629 27.68665602 6.34120987 29.95452881 9.22998047 C31.71970735 12.21848988 31.64889237 14.95608509 31.6640625 18.375 C31.66884613 19.06255371 31.67362976 19.75010742 31.67855835 20.45849609 C31.68194239 21.9039948 31.67284469 23.3495716 31.65185547 24.79492188 C31.62505796 26.99524134 31.65164322 29.1904623 31.68359375 31.390625 C31.68028937 32.80209448 31.67388254 34.21356081 31.6640625 35.625 C31.65560303 37.53152344 31.65560303 37.53152344 31.64697266 39.4765625 C30.80109383 44.08325053 29.27100604 45.70611979 26 49 C21.72496025 51.13751988 16.10459254 50.30913109 11.36132812 50.35009766 C9.96076799 50.36661675 8.56029075 50.3938542 7.16015625 50.43212891 C-5.9702297 50.78893287 -5.9702297 50.78893287 -9.890625 47.6015625 C-14.26423428 42.20744439 -13.29633376 36.15902807 -13.35009766 29.50683594 C-13.36662195 28.00928163 -13.39386606 26.51180505 -13.43212891 25.01464844 C-13.48718342 22.84789414 -13.5088139 20.68298656 -13.5234375 18.515625 C-13.54325684 17.21915039 -13.56307617 15.92267578 -13.58349609 14.58691406 C-12.81514907 9.86366953 -11.41858901 8.2940149 -8 5 C-6.0103005 4.60986284 -4.00980131 4.26797351 -2 4 C-1.34 2.68 -0.68 1.36 0 0 Z " fill="#D7AA4D" transform="translate(21,5)"/>
<path d="M0 0 C1.19496094 -0.00386719 1.19496094 -0.00386719 2.4140625 -0.0078125 C3.24679688 -0.00007812 4.07953125 0.00765625 4.9375 0.015625 C5.77023438 0.00789062 6.60296875 0.00015625 7.4609375 -0.0078125 C8.25757813 -0.00523437 9.05421875 -0.00265625 9.875 0 C10.60589844 0.00225586 11.33679688 0.00451172 12.08984375 0.00683594 C13.9375 0.265625 13.9375 0.265625 15.9375 2.265625 C16.49256608 8.37135187 16.49256608 8.37135187 14.8828125 10.96484375 C11.92370487 12.94352415 8.93504431 12.69990669 5.5 12.640625 C4.18128906 12.64835937 2.86257812 12.65609375 1.50390625 12.6640625 C-2.12169288 12.25901199 -3.62499663 11.93644103 -6.0625 9.265625 C-6.4375 5.703125 -6.4375 5.703125 -6.0625 2.265625 C-3.69681778 -0.10005722 -3.21017774 0.00990796 0 0 Z " fill="#915508" transform="translate(25.0625,4.734375)"/>
<path d="M0 0 C6.93 0 13.86 0 21 0 C21 0.99 21 1.98 21 3 C14.07 3 7.14 3 0 3 C0 2.01 0 1.02 0 0 Z " fill="#905307" transform="translate(18,29)"/>
<path d="M0 0 C4.95 0 9.9 0 15 0 C15 0.99 15 1.98 15 3 C10.05 3 5.1 3 0 3 C0 2.01 0 1.02 0 0 Z " fill="#925609" transform="translate(18,39)"/>
</svg>
