<?xml version="1.0" encoding="UTF-8"?>
<!DOCTYPE svg PUBLIC "-//W3C//DTD SVG 1.1//EN" "http://www.w3.org/Graphics/SVG/1.1/DTD/svg11.dtd">
<svg xmlns="http://www.w3.org/2000/svg" version="1.1" width="60px" height="60px" style="shape-rendering:geometricPrecision; text-rendering:geometricPrecision; image-rendering:optimizeQuality; fill-rule:evenodd; clip-rule:evenodd" xmlns:xlink="http://www.w3.org/1999/xlink">
<g><path style="opacity:0.976" fill="#8f5206" d="M 28.5,11.5 C 23.5,11.5 18.5,11.5 13.5,11.5C 14.4653,6.35313 17.4653,4.18646 22.5,5C 24.7059,7.0367 26.7059,9.20337 28.5,11.5 Z"/></g>
<g><path style="opacity:0.968" fill="#8f5106" d="M 45.5,11.5 C 40.5,11.5 35.5,11.5 30.5,11.5C 32.6052,8.22324 35.4385,5.88991 39,4.5C 42.7006,5.36848 44.8672,7.70181 45.5,11.5 Z"/></g>
<g><path style="opacity:0.983" fill="#d7aa4e" d="M 13.5,11.5 C 18.5,11.5 23.5,11.5 28.5,11.5C 29.1667,11.5 29.8333,11.5 30.5,11.5C 35.5,11.5 40.5,11.5 45.5,11.5C 53.1558,11.3152 55.6558,14.9818 53,22.5C 52.3109,23.3567 51.4776,24.0233 50.5,24.5C 49.6681,33.1475 49.1681,41.8142 49,50.5C 48.5,52.3333 47.3333,53.5 45.5,54C 34.8333,54.6667 24.1667,54.6667 13.5,54C 11.6667,53.5 10.5,52.3333 10,50.5C 8.82747,41.8839 8.1608,33.2173 8,24.5C 6.02456,22.8302 5.19123,20.6636 5.5,18C 5.25701,12.4174 7.92368,10.2507 13.5,11.5 Z"/></g>
<g><path style="opacity:1" fill="#915408" d="M 21.5,24.5 C 26.5,24.5 31.5,24.5 36.5,24.5C 36.5,29.5 36.5,34.5 36.5,39.5C 33.9105,39.6038 31.5771,38.9371 29.5,37.5C 27.4096,39.1058 25.0762,39.6058 22.5,39C 21.5308,34.2633 21.1975,29.43 21.5,24.5 Z"/></g>
</svg>
