<?xml version="1.0" encoding="UTF-8"?>
<svg version="1.1" xmlns="http://www.w3.org/2000/svg" width="60" height="60">
<path d="M0 0 C0 3.3 0 6.6 0 10 C1.093125 10.0825 2.18625 10.165 3.3125 10.25 C7 11 7 11 8.9375 12.6875 C10.3613395 15.7864448 10.55153827 17.62182812 10 21 C7.8125 23.875 7.8125 23.875 5 26 C3.35 26 1.7 26 0 26 C0 29.3 0 32.6 0 36 C-9.57536533 36.59846033 -14.67287787 34.01329333 -22 28 C-21.99476318 28.57032959 -21.98952637 29.14065918 -21.98413086 29.72827148 C-21.96341779 32.29800323 -21.9503581 34.86771747 -21.9375 37.4375 C-21.92912109 38.33533203 -21.92074219 39.23316406 -21.91210938 40.15820312 C-21.90888672 41.01220703 -21.90566406 41.86621094 -21.90234375 42.74609375 C-21.89710693 43.53685303 -21.89187012 44.3276123 -21.88647461 45.14233398 C-22 47 -22 47 -23 48 C-26.5 48.125 -26.5 48.125 -30 48 C-31 47 -31 47 -31.11352539 45.14233398 C-31.10828857 44.35157471 -31.10305176 43.56081543 -31.09765625 42.74609375 C-31.09443359 41.89208984 -31.09121094 41.03808594 -31.08789062 40.15820312 C-31.07951172 39.26037109 -31.07113281 38.36253906 -31.0625 37.4375 C-31.05798828 36.53580078 -31.05347656 35.63410156 -31.04882812 34.70507812 C-31.03700225 32.46998686 -31.0205222 30.23502563 -31 28 C-32.32 28 -33.64 28 -35 28 C-36.57924842 24.84150315 -36.14316514 21.4634872 -36.125 18 C-36.12886719 17.26265625 -36.13273437 16.5253125 -36.13671875 15.765625 C-36.1266598 10.2533196 -36.1266598 10.2533196 -35 8 C-32.58672822 7.81848387 -30.22827603 7.72881724 -27.8125 7.6875 C-21.48107332 7.44364149 -18.33658692 6.67894904 -14 2 C-9.44654722 -0.58439212 -5.10837824 -0.1524889 0 0 Z " fill="#D7AA4E" transform="translate(43,7)"/>
<path d="M0 0 C4.95 0 9.9 0 15 0 C14.67 1.32 14.34 2.64 14 4 C13.9082529 5.81065591 13.86997095 7.62452811 13.875 9.4375 C13.87242188 10.36433594 13.86984375 11.29117187 13.8671875 12.24609375 C13.99655948 14.92865981 14.40217166 17.38568718 15 20 C14.34 20 13.68 20 13 20 C13.00523682 20.57032959 13.01047363 21.14065918 13.01586914 21.72827148 C13.03658221 24.29800323 13.0496419 26.86771747 13.0625 29.4375 C13.07087891 30.33533203 13.07925781 31.23316406 13.08789062 32.15820312 C13.09111328 33.01220703 13.09433594 33.86621094 13.09765625 34.74609375 C13.10289307 35.53685303 13.10812988 36.3276123 13.11352539 37.14233398 C13 39 13 39 12 40 C8.5 40.125 8.5 40.125 5 40 C4 39 4 39 3.88647461 37.14233398 C3.89171143 36.35157471 3.89694824 35.56081543 3.90234375 34.74609375 C3.90556641 33.89208984 3.90878906 33.03808594 3.91210938 32.15820312 C3.92048828 31.26037109 3.92886719 30.36253906 3.9375 29.4375 C3.94201172 28.53580078 3.94652344 27.63410156 3.95117188 26.70507812 C3.96299775 24.46998686 3.9794778 22.23502563 4 20 C2.68 20 1.36 20 0 20 C-1.57924842 16.84150315 -1.14316514 13.4634872 -1.125 10 C-1.12886719 9.26265625 -1.13273438 8.5253125 -1.13671875 7.765625 C-1.1266598 2.2533196 -1.1266598 2.2533196 0 0 Z " fill="#905307" transform="translate(8,15)"/>
<path d="M0 0 C2.97 0 5.94 0 9 0 C9.02683697 3.14588944 9.04675902 6.29155271 9.0625 9.4375 C9.07087891 10.33533203 9.07925781 11.23316406 9.08789062 12.15820312 C9.09111328 13.01220703 9.09433594 13.86621094 9.09765625 14.74609375 C9.10289307 15.53685303 9.10812988 16.3276123 9.11352539 17.14233398 C9 19 9 19 8 20 C4.5 20.125 4.5 20.125 1 20 C0 19 0 19 -0.11352539 17.14233398 C-0.10828857 16.35157471 -0.10305176 15.56081543 -0.09765625 14.74609375 C-0.09443359 13.89208984 -0.09121094 13.03808594 -0.08789062 12.15820312 C-0.07951172 11.26037109 -0.07113281 10.36253906 -0.0625 9.4375 C-0.05798828 8.53580078 -0.05347656 7.63410156 -0.04882812 6.70507812 C-0.03700244 4.47002411 -0.01906638 2.23500398 0 0 Z " fill="#D9AC4F" transform="translate(12,35)"/>
<path d="M0 0 C7 1 7 1 8.9375 2.6875 C10.3613395 5.7864448 10.55153827 7.62182812 10 11 C7.8125 13.875 7.8125 13.875 5 16 C3.35 16 1.7 16 0 16 C0 10.72 0 5.44 0 0 Z " fill="#8F5206" transform="translate(43,17)"/>
</svg>
