<?xml version="1.0" encoding="UTF-8"?>
<svg version="1.1" xmlns="http://www.w3.org/2000/svg" width="48" height="48">
<path d="M0 0 C1.01964844 -0.01675781 2.03929688 -0.03351563 3.08984375 -0.05078125 C6.46467003 0.36164824 8.32220649 1.33987737 11.0625 3.3125 C13.8531929 6.90053373 13.20715334 10.97289979 13.0625 15.3125 C13.84625 15.415625 14.63 15.51875 15.4375 15.625 C18.0625 16.3125 18.0625 16.3125 20.0625 19.3125 C20.31061058 22.17154164 20.43269957 24.89134378 20.4375 27.75 C20.46199219 28.51376953 20.48648438 29.27753906 20.51171875 30.06445312 C20.51751953 31.17530273 20.51751953 31.17530273 20.5234375 32.30859375 C20.53165527 32.98075928 20.53987305 33.6529248 20.54833984 34.34545898 C19.80298051 37.36322792 18.55201928 38.48158769 16.0625 40.3125 C12.734375 40.83007812 12.734375 40.83007812 8.8125 40.84375 C8.11737305 40.8475769 7.42224609 40.85140381 6.70605469 40.85534668 C5.24021959 40.8580618 3.77433572 40.85072835 2.30859375 40.83398438 C0.06921025 40.81256419 -2.16696587 40.83379443 -4.40625 40.859375 C-5.83334039 40.85673165 -7.26042879 40.8516065 -8.6875 40.84375 C-9.98171875 40.83923828 -11.2759375 40.83472656 -12.609375 40.83007812 C-15.9375 40.3125 -15.9375 40.3125 -18.35742188 38.52734375 C-20.02547798 36.18917859 -20.44961976 35.16682626 -20.46875 32.34375 C-20.47390625 31.60769531 -20.4790625 30.87164062 -20.484375 30.11328125 C-20.46890625 29.35402344 -20.4534375 28.59476563 -20.4375 27.8125 C-20.45296875 27.05324219 -20.4684375 26.29398438 -20.484375 25.51171875 C-20.45811648 21.76331486 -20.34859939 19.87689069 -18.09375 16.78125 C-15.9375 15.3125 -15.9375 15.3125 -12.9375 15.3125 C-13.0303125 13.765625 -13.0303125 13.765625 -13.125 12.1875 C-12.92240162 8.00046673 -12.21061598 5.80335668 -9.9375 2.3125 C-6.67480044 0.15691872 -3.85864621 0.01459765 0 0 Z M-8.9375 7.3125 C-8.9375 9.6225 -8.9375 11.9325 -8.9375 14.3125 C-2.9975 14.3125 2.9425 14.3125 9.0625 14.3125 C9.43820511 8.82335459 9.43820511 8.82335459 8.125 6 C2.77914145 1.62611573 -4.18537481 2.56037481 -8.9375 7.3125 Z M-4.9375 24.3125 C-5.98333942 26.72597559 -6.03135848 27.9474948 -5.375 30.5 C-3.98957839 32.60267564 -3.98957839 32.60267564 -1 33.1875 C2.23787932 33.62037112 2.23787932 33.62037112 5.0625 31.3125 C6.0771239 29.5060345 6.0771239 29.5060345 6.0625 27.3125 C5.06969496 24.49112819 5.06969496 24.49112819 3.0625 22.3125 C-0.67040719 21.65924124 -1.72447711 22.17048474 -4.9375 24.3125 Z " fill="#C69F54" transform="translate(23.9375,3.6875)"/>
<path d="M0 0 C2.625 0.375 2.625 0.375 5 1 C5.625 2.875 5.625 2.875 6 5 C5.34 5.66 4.68 6.32 4 7 C1.375 6.625 1.375 6.625 -1 6 C-1.625 4.125 -1.625 4.125 -2 2 C-1.34 1.34 -0.68 0.68 0 0 Z " fill="#C69F54" transform="translate(22,28)"/>
</svg>
