<?xml version="1.0" encoding="UTF-8"?>
<svg version="1.1" xmlns="http://www.w3.org/2000/svg" width="60" height="60">
<path d="M0 0 C1.17655403 -0.00855011 1.17655403 -0.00855011 2.37687683 -0.01727295 C4.03875376 -0.0267264 5.70064947 -0.0332583 7.36254883 -0.03710938 C9.89763413 -0.04679729 12.43190254 -0.07780904 14.96679688 -0.109375 C16.58202644 -0.11590697 18.1972618 -0.12115668 19.8125 -0.125 C20.94556328 -0.1435202 20.94556328 -0.1435202 22.10151672 -0.16241455 C26.62514739 -0.14339845 29.53067963 0.37444727 33.10546875 3.203125 C36.40023469 8.14527392 35.51642155 14.03732432 35.53100586 19.82666016 C35.54289339 22.06394263 35.59206883 24.29845669 35.64257812 26.53515625 C35.65204424 27.96352825 35.65927838 29.39191714 35.6640625 30.8203125 C35.67751709 32.11565918 35.69097168 33.41100586 35.70483398 34.74560547 C34.95722396 39.05829515 33.45466477 40.48626375 30.10546875 43.203125 C26.9793322 44.76619327 23.64386252 44.38708978 20.2109375 44.40625 C19.42656815 44.41195007 18.64219879 44.41765015 17.83406067 44.42352295 C16.17218374 44.4329764 14.51028803 44.4395083 12.84838867 44.44335938 C10.31330337 44.45304729 7.77903496 44.48405904 5.24414062 44.515625 C3.62891106 44.52215697 2.0136757 44.52740668 0.3984375 44.53125 C-0.35693802 44.5435968 -1.11231354 44.5559436 -1.89057922 44.56866455 C-6.41420989 44.54964845 -9.31974213 44.03180273 -12.89453125 41.203125 C-16.18929719 36.26097608 -15.30548405 30.36892568 -15.32006836 24.57958984 C-15.33195589 22.34230737 -15.38113133 20.10779331 -15.43164062 17.87109375 C-15.44110674 16.44272175 -15.44834088 15.01433286 -15.453125 13.5859375 C-15.46657959 12.29059082 -15.48003418 10.99524414 -15.49389648 9.66064453 C-14.74628646 5.34795485 -13.24372727 3.91998625 -9.89453125 1.203125 C-6.7683947 -0.35994327 -3.43292502 0.01916022 0 0 Z " fill="#D7AA4D" transform="translate(19.89453125,7.796875)"/>
<path d="M0 0 C1.17655403 -0.00855011 1.17655403 -0.00855011 2.37687683 -0.01727295 C4.03875376 -0.0267264 5.70064947 -0.0332583 7.36254883 -0.03710938 C9.89763413 -0.04679729 12.43190254 -0.07780904 14.96679688 -0.109375 C16.58202644 -0.11590697 18.1972618 -0.12115668 19.8125 -0.125 C20.94556328 -0.1435202 20.94556328 -0.1435202 22.10151672 -0.16241455 C26.62514739 -0.14339845 29.53067963 0.37444727 33.10546875 3.203125 C35.10546875 6.203125 35.10546875 6.203125 35.10546875 14.203125 C18.60546875 14.203125 2.10546875 14.203125 -14.89453125 14.203125 C-14.89453125 6.203125 -14.89453125 6.203125 -12.51953125 3.265625 C-8.30173178 -0.04836029 -5.19923912 0.02901856 0 0 Z " fill="#8F5206" transform="translate(19.89453125,7.796875)"/>
<path d="M0 0 C3.96 0 7.92 0 12 0 C12.33 1.32 12.66 2.64 13 4 C8.71 4 4.42 4 0 4 C0 2.68 0 1.36 0 0 Z " fill="#965B0D" transform="translate(25,39)"/>
<path d="M0 0 C2.31 0 4.62 0 7 0 C7 1.32 7 2.64 7 4 C4.36 4 1.72 4 -1 4 C-0.67 2.68 -0.34 1.36 0 0 Z " fill="#985E0F" transform="translate(14,39)"/>
</svg>
