<?xml version="1.0" encoding="UTF-8"?>
<svg version="1.1" xmlns="http://www.w3.org/2000/svg" width="60" height="60">
<path d="M0 0 C8.48279967 1.56986877 16.93867776 5.6481261 22.40625 12.4453125 C26.3188652 18.39353915 27.00683965 23.55219638 26.84375 30.5703125 C26.85083984 31.43785156 26.85792969 32.30539063 26.86523438 33.19921875 C26.80266017 39.52402696 25.90939623 43.95072989 21.26538086 48.57885742 C17.74180204 50.87906749 14.94588482 51.00862562 10.875 50.94140625 C9.80469543 50.9435891 9.80469543 50.9435891 8.71276855 50.94581604 C7.21000061 50.94416223 5.70721483 50.93265891 4.20458984 50.91186523 C1.91300022 50.88289783 -0.37627446 50.8912675 -2.66796875 50.90429688 C-4.13282367 50.89805881 -5.59767133 50.88966732 -7.0625 50.87890625 C-7.74284302 50.88184189 -8.42318604 50.88477753 -9.12414551 50.88780212 C-13.44444361 50.80273216 -16.12815823 50.02828609 -19.59375 47.4453125 C-24.19430798 42.3518376 -23.83083677 36.72107102 -23.90625 30.1953125 C-23.93525391 29.37417969 -23.96425781 28.55304687 -23.99414062 27.70703125 C-24.05471425 21.8267301 -22.98588459 17.32392149 -19.59375 12.4453125 C-16.61003283 10.11655763 -15.37784145 9.4453125 -11.59375 9.4453125 C-11.34625 8.7028125 -11.09875 7.9603125 -10.84375 7.1953125 C-8.45174495 1.93290139 -6.0453076 -0.33835677 0 0 Z " fill="#D8AB4F" transform="translate(28.59375,4.5546875)"/>
<path d="M0 0 C8.32330877 1.93004261 15.27612932 6.13695038 20.51953125 12.984375 C23.29078174 17.88057728 23.46043755 22.47474943 23 28 C21 25 21 25 20.25 22.4375 C19.21054879 19.78760516 19.21054879 19.78760516 16.5390625 18.88671875 C12.04736058 17.76131441 7.7385244 17.54175389 3.125 17.375 C2.24585938 17.33632813 1.36671875 17.29765625 0.4609375 17.2578125 C-1.69238793 17.16418966 -3.84616414 17.08103541 -6 17 C-5.43432198 12.61762082 -4.33286504 9.11012649 -2.4375 5.125 C-1.75494141 3.67480469 -1.75494141 3.67480469 -1.05859375 2.1953125 C-0.70925781 1.47085937 -0.35992187 0.74640625 0 0 Z " fill="#C4933F" transform="translate(32,6)"/>
<path d="M0 0 C1.35685993 4.07057978 -0.19131485 6.42089267 -1.875 10.125 C-2.15730469 10.77082031 -2.43960937 11.41664062 -2.73046875 12.08203125 C-4.83129699 16.83129699 -4.83129699 16.83129699 -6 18 C-7.85287502 18.07226502 -9.70833878 18.0838122 -11.5625 18.0625 C-12.57441406 18.05347656 -13.58632813 18.04445313 -14.62890625 18.03515625 C-15.41136719 18.02355469 -16.19382812 18.01195313 -17 18 C-15.50395679 11.63048268 -14.18173054 6.12599228 -10 1 C-6.78548731 -0.60725635 -3.56387464 -0.05748185 0 0 Z " fill="#F8E39D" transform="translate(31,5)"/>
<path d="M0 0 C-1.61650823 6.03233558 -3.19327814 9.77946373 -8 14 C-9.35555293 15.64864545 -10.69631653 17.31003995 -12 19 C-12.4501751 12.69754853 -11.72343882 8.22482543 -8 3 C-5.01628283 0.67124513 -3.78409145 0 0 0 Z " fill="#92560A" transform="translate(17,14)"/>
<path d="M0 0 C4.50129493 2.25064747 5.22572706 3.38191893 7.25 7.69140625 C8.47441429 11.4603065 8.32605461 15.08734462 8 19 C6 16 6 16 5.1875 13.4375 C4.18995984 10.76236228 4.18995984 10.76236228 1.375 9.6875 C0.59125 9.460625 -0.1925 9.23375 -1 9 C-0.67 6.03 -0.34 3.06 0 0 Z " fill="#915508" transform="translate(47,15)"/>
</svg>
