<?xml version="1.0" encoding="UTF-8"?>
<svg version="1.1" xmlns="http://www.w3.org/2000/svg" width="60" height="60">
<path d="M0 0 C0.66 0.99 1.32 1.98 2 3 C5.66247203 2.58833383 5.66247203 2.58833383 8.4375 0.375 C10 -1 10 -1 12.875 -0.9375 C16.64969843 0.19490953 18.46307736 0.94076975 21 4 C21.41836854 7.37342731 21.29032605 10.61931446 21 14 C22.7015625 14.7115625 22.7015625 14.7115625 24.4375 15.4375 C28 17 28 17 29 18 C29.1245486 19.64230364 29.17568524 21.29052276 29.1875 22.9375 C29.20167969 23.83339844 29.21585938 24.72929687 29.23046875 25.65234375 C29 28 29 28 27 30 C25.01643517 30.71408334 23.01684563 31.38617742 21 32 C21.05800781 32.67546875 21.11601563 33.3509375 21.17578125 34.046875 C21.54480631 41.34302768 21.54480631 41.34302768 18.875 44.5625 C15.71471866 46.14264067 13.54661021 47 10 47 C8.64631404 45.68733482 7.31200404 44.35432675 6 43 C3.40110217 42.91975342 3.40110217 42.91975342 1 44 C0.525625 44.53625 0.05125 45.0725 -0.4375 45.625 C-2 47 -2 47 -4.875 46.9375 C-8.64969843 45.80509047 -10.46307736 45.05923025 -13 42 C-13.41836854 38.62657269 -13.29032605 35.38068554 -13 32 C-14.134375 31.525625 -15.26875 31.05125 -16.4375 30.5625 C-20 29 -20 29 -21 28 C-21.1245486 26.35769636 -21.17568524 24.70947724 -21.1875 23.0625 C-21.20167969 22.16660156 -21.21585938 21.27070313 -21.23046875 20.34765625 C-21 18 -21 18 -19 16 C-17.01643517 15.28591666 -15.01684563 14.61382258 -13 14 C-13.08701172 12.98679687 -13.08701172 12.98679687 -13.17578125 11.953125 C-13.31361816 9.22789242 -13.35283394 6.70789422 -13 4 C-8.82582887 -0.50371096 -5.89390793 -1.47347698 0 0 Z " fill="#D8AB4E" transform="translate(26,7)"/>
<path d="M0 0 C4.0743356 0.84881992 5.54405875 2.30225596 8 5.625 C8.625 8.625 8.625 8.625 8 11.625 C5.54405875 14.94774404 4.0743356 16.40118008 0 17.25 C-4.0743356 16.40118008 -5.54405875 14.94774404 -8 11.625 C-8.625 8.625 -8.625 8.625 -8 5.625 C-5.54405875 2.30225596 -4.0743356 0.84881992 0 0 Z " fill="#905407" transform="translate(30,21.375)"/>
</svg>
