<svg xmlns="http://www.w3.org/2000/svg" xmlns:xlink="http://www.w3.org/1999/xlink" width="300" zoomAndPan="magnify" viewBox="0 0 224.87999 52.499999" height="70" preserveAspectRatio="xMidYMid meet" version="1.0"><defs><g/></defs><g fill="#ff3131" fill-opacity="1"><g transform="translate(4.305386, 33.063041)"><g><path d="M -2.40625 -19.15625 C -1.445312 -19.550781 -0.617188 -19.75 0.078125 -19.75 C 0.773438 -19.75 1.390625 -19.679688 1.921875 -19.546875 C 2.453125 -19.410156 3 -19.1875 3.5625 -18.875 C 4.125 -18.570312 4.644531 -18.195312 5.125 -17.75 C 6.0625 -16.863281 6.851562 -15.863281 7.5 -14.75 L 12.5 -5.375 L 19.75 -17.84375 L 19.96875 -17.84375 L 22.578125 -3.15625 C 22.972656 -0.882812 23.664062 0.914062 24.65625 2.25 C 25.632812 3.601562 26.984375 4.28125 28.703125 4.28125 C 28.816406 4.28125 28.925781 4.28125 29.03125 4.28125 L 29.03125 4.53125 C 28.113281 4.78125 27.210938 4.90625 26.328125 4.90625 C 24.523438 4.90625 22.882812 4.195312 21.40625 2.78125 C 19.96875 1.425781 18.988281 -0.550781 18.46875 -3.15625 L 17.25 -10.421875 L 12.546875 -2.28125 C 11.910156 -1.226562 11.585938 -0.300781 11.578125 0.5 L 11.34375 0.5 L 5.125 -11.296875 L 3.90625 -1.296875 C 3.851562 -0.910156 4.019531 -0.601562 4.40625 -0.375 C 4.550781 -0.269531 4.707031 -0.21875 4.875 -0.21875 L 5.28125 -0.21875 L 5.28125 0 L 0.046875 0 L 0.046875 -0.25 L 0.453125 -0.25 C 0.878906 -0.25 1.265625 -0.378906 1.609375 -0.640625 C 1.953125 -0.898438 2.164062 -1.253906 2.25 -1.703125 L 3.953125 -13.625 C 3.203125 -14.957031 2.34375 -16.140625 1.375 -17.171875 C 0.289062 -18.335938 -0.84375 -18.921875 -2.03125 -18.921875 C -2.144531 -18.921875 -2.25 -18.914062 -2.34375 -18.90625 Z M -2.40625 -19.15625 "/></g></g></g><g fill="#ff3131" fill-opacity="1"><g transform="translate(27.433947, 33.063041)"><g><path d="M 1.375 -0.25 C 1.8125 -0.25 2.179688 -0.398438 2.484375 -0.703125 C 2.796875 -1.015625 2.957031 -1.390625 2.96875 -1.828125 L 2.96875 -15.75 C 2.925781 -16.332031 2.65625 -16.765625 2.15625 -17.046875 C 1.90625 -17.179688 1.644531 -17.25 1.375 -17.25 L 1.046875 -17.25 L 1.046875 -17.5 L 8.078125 -17.5 C 8.804688 -17.5 9.445312 -17.554688 10 -17.671875 C 10.550781 -17.785156 10.910156 -17.878906 11.078125 -17.953125 L 11.078125 -13.578125 L 10.796875 -13.578125 L 10.796875 -13.875 C 10.816406 -14.625 10.601562 -15.226562 10.15625 -15.6875 C 9.71875 -16.144531 9.125 -16.390625 8.375 -16.421875 L 6.71875 -16.421875 L 6.71875 -9.15625 L 10.703125 -9.15625 C 11.316406 -9.164062 11.820312 -9.375 12.21875 -9.78125 C 12.625 -10.195312 12.828125 -10.703125 12.828125 -11.296875 L 12.828125 -11.53125 L 13.046875 -11.53125 L 13.046875 -5.75 L 12.828125 -5.75 L 12.828125 -5.953125 C 12.828125 -6.566406 12.625 -7.070312 12.21875 -7.46875 C 11.820312 -7.875 11.320312 -8.082031 10.71875 -8.09375 L 6.71875 -8.09375 L 6.71875 -1.078125 L 11.59375 -1.078125 C 12.8125 -1.078125 13.832031 -1.425781 14.65625 -2.125 C 15.488281 -2.820312 16.101562 -3.8125 16.5 -5.09375 L 16.75 -5.09375 L 15.578125 0 L 1.046875 0 L 1.046875 -0.25 Z M 1.375 -0.25 "/></g></g></g><g fill="#ff3131" fill-opacity="1"><g transform="translate(43.111271, 33.063041)"><g><path d="M -0.625 -11.671875 C -1.4375 -12.453125 -1.84375 -13.296875 -1.84375 -14.203125 C -1.84375 -14.898438 -1.617188 -15.507812 -1.171875 -16.03125 C -0.316406 -17.03125 0.875 -17.53125 2.40625 -17.53125 L 14.1875 -17.53125 C 14.914062 -17.539062 15.554688 -17.597656 16.109375 -17.703125 C 16.660156 -17.816406 17.007812 -17.90625 17.15625 -17.96875 L 17.15625 -13.625 L 16.90625 -13.625 L 16.90625 -13.921875 C 16.90625 -14.671875 16.679688 -15.28125 16.234375 -15.75 C 15.785156 -16.21875 15.175781 -16.457031 14.40625 -16.46875 L 11.03125 -16.46875 L 11.03125 -1.796875 C 11.0625 -1.203125 11.335938 -0.753906 11.859375 -0.453125 C 12.085938 -0.316406 12.34375 -0.25 12.625 -0.25 L 12.953125 -0.25 L 12.953125 0 L 5.359375 0 L 5.359375 -0.25 L 5.6875 -0.25 C 6.113281 -0.25 6.476562 -0.398438 6.78125 -0.703125 C 7.09375 -1.003906 7.257812 -1.363281 7.28125 -1.78125 L 7.28125 -16.46875 L 2.40625 -16.46875 C 1.71875 -16.46875 1.117188 -16.34375 0.609375 -16.09375 C -0.441406 -15.59375 -0.96875 -14.8125 -0.96875 -13.75 C -0.96875 -13.113281 -0.769531 -12.460938 -0.375 -11.796875 Z M -0.625 -11.671875 "/></g></g></g><g fill="#ff3131" fill-opacity="1"><g transform="translate(59.488716, 33.063041)"><g><path d="M 24.15625 4.578125 C 22.34375 5.492188 20.5 5.644531 18.625 5.03125 C 16.644531 4.394531 14.9375 3.039062 13.5 0.96875 C 12.738281 -0.125 12.082031 -1.394531 11.53125 -2.84375 L 10.734375 -4.96875 L 4.828125 -4.96875 L 3.5 -1.828125 C 3.414062 -1.609375 3.375 -1.429688 3.375 -1.296875 C 3.375 -1.160156 3.40625 -1.015625 3.46875 -0.859375 C 3.53125 -0.703125 3.65625 -0.5625 3.84375 -0.4375 C 4.03125 -0.3125 4.242188 -0.25 4.484375 -0.25 L 4.6875 -0.25 L 4.6875 0 L -0.671875 0 L -0.671875 -0.25 L -0.4375 -0.25 C -0.0625 -0.25 0.3125 -0.359375 0.6875 -0.578125 C 1.0625 -0.804688 1.375 -1.144531 1.625 -1.59375 L 7.203125 -14.328125 C 6.554688 -15.796875 5.863281 -16.800781 5.125 -17.34375 C 4.507812 -17.8125 3.921875 -18.046875 3.359375 -18.046875 C 2.804688 -18.046875 2.289062 -17.960938 1.8125 -17.796875 L 1.75 -18.046875 C 2.957031 -18.660156 4.109375 -18.96875 5.203125 -18.96875 C 6.566406 -18.96875 7.789062 -18.4375 8.875 -17.375 C 9.945312 -16.320312 10.890625 -14.804688 11.703125 -12.828125 L 15.328125 -3.875 C 16.691406 -0.488281 18.09375 1.832031 19.53125 3.09375 C 20.113281 3.613281 20.710938 3.972656 21.328125 4.171875 C 21.941406 4.367188 22.460938 4.46875 22.890625 4.46875 C 23.316406 4.46875 23.726562 4.421875 24.125 4.328125 Z M 5.25 -6.046875 L 10.359375 -6.046875 L 8.609375 -10.671875 C 8.523438 -10.910156 8.40625 -11.234375 8.25 -11.640625 C 8.101562 -12.046875 8.003906 -12.332031 7.953125 -12.5 Z M 5.25 -6.046875 "/></g></g></g><g fill="#ff3131" fill-opacity="1"><g transform="translate(76.041186, 33.063041)"><g><path d="M 23.15625 -23.703125 C 23.570312 -23.703125 23.921875 -23.6875 24.203125 -23.65625 L 24.203125 -23.40625 C 23.171875 -23.351562 22.28125 -23.101562 21.53125 -22.65625 C 20.675781 -22.132812 20.070312 -21.648438 19.71875 -21.203125 C 19.363281 -20.765625 19.082031 -20.40625 18.875 -20.125 C 18.664062 -19.851562 18.457031 -19.53125 18.25 -19.15625 C 17.9375 -18.570312 17.644531 -17.992188 17.375 -17.421875 L 10.6875 -2.78125 C 9.914062 -1.125 9.503906 -0.03125 9.453125 0.5 L 9.234375 0.5 L 1.65625 -15.828125 C 1.40625 -16.296875 1.085938 -16.648438 0.703125 -16.890625 C 0.316406 -17.128906 -0.0703125 -17.25 -0.46875 -17.25 L -0.671875 -17.25 L -0.671875 -17.5 L 7.28125 -17.5 L 7.28125 -17.25 L 7.078125 -17.25 C 6.710938 -17.25 6.441406 -17.132812 6.265625 -16.90625 C 6.085938 -16.6875 6 -16.472656 6 -16.265625 C 6 -16.066406 6.035156 -15.867188 6.109375 -15.671875 L 10.359375 -5.34375 L 15.53125 -17.421875 C 16.3125 -19.273438 17.226562 -20.664062 18.28125 -21.59375 C 19.832031 -23 21.457031 -23.703125 23.15625 -23.703125 Z M 23.15625 -23.703125 "/></g></g></g><g fill="#ff3131" fill-opacity="1"><g transform="translate(92.943716, 33.063041)"><g><path d="M 1.375 -0.25 C 1.8125 -0.25 2.179688 -0.398438 2.484375 -0.703125 C 2.796875 -1.015625 2.957031 -1.390625 2.96875 -1.828125 L 2.96875 -15.75 C 2.925781 -16.332031 2.65625 -16.765625 2.15625 -17.046875 C 1.90625 -17.179688 1.644531 -17.25 1.375 -17.25 L 1.046875 -17.25 L 1.046875 -17.5 L 8.078125 -17.5 C 8.804688 -17.5 9.445312 -17.554688 10 -17.671875 C 10.550781 -17.785156 10.910156 -17.878906 11.078125 -17.953125 L 11.078125 -13.578125 L 10.796875 -13.578125 L 10.796875 -13.875 C 10.816406 -14.625 10.601562 -15.226562 10.15625 -15.6875 C 9.71875 -16.144531 9.125 -16.390625 8.375 -16.421875 L 6.71875 -16.421875 L 6.71875 -9.15625 L 10.703125 -9.15625 C 11.316406 -9.164062 11.820312 -9.375 12.21875 -9.78125 C 12.625 -10.195312 12.828125 -10.703125 12.828125 -11.296875 L 12.828125 -11.53125 L 13.046875 -11.53125 L 13.046875 -5.75 L 12.828125 -5.75 L 12.828125 -5.953125 C 12.828125 -6.566406 12.625 -7.070312 12.21875 -7.46875 C 11.820312 -7.875 11.320312 -8.082031 10.71875 -8.09375 L 6.71875 -8.09375 L 6.71875 -1.078125 L 11.59375 -1.078125 C 12.8125 -1.078125 13.832031 -1.425781 14.65625 -2.125 C 15.488281 -2.820312 16.101562 -3.8125 16.5 -5.09375 L 16.75 -5.09375 L 15.578125 0 L 1.046875 0 L 1.046875 -0.25 Z M 1.375 -0.25 "/></g></g></g><g fill="#ff3131" fill-opacity="1"><g transform="translate(108.621036, 33.063041)"><g><path d="M 27.125 4.25 C 25.820312 4.894531 24.4375 5.21875 22.96875 5.21875 C 21.675781 5.21875 20.492188 5.019531 19.421875 4.625 C 17.117188 3.769531 15.160156 2.113281 13.546875 -0.34375 C 13.128906 -0.945312 12.351562 -2.097656 11.21875 -3.796875 C 10.09375 -5.492188 9.363281 -6.578125 9.03125 -7.046875 C 8.445312 -7.960938 7.976562 -8.460938 7.625 -8.546875 L 7.625 -8.796875 C 7.644531 -8.796875 7.664062 -8.796875 7.6875 -8.796875 C 7.707031 -8.796875 7.734375 -8.796875 7.765625 -8.796875 C 7.804688 -8.796875 7.84375 -8.796875 7.875 -8.796875 C 7.90625 -8.796875 7.945312 -8.796875 8 -8.796875 C 8.050781 -8.796875 8.09375 -8.796875 8.125 -8.796875 C 8.976562 -8.796875 9.757812 -8.988281 10.46875 -9.375 C 11.550781 -9.976562 12.09375 -11.085938 12.09375 -12.703125 C 12.09375 -13.878906 11.757812 -14.789062 11.09375 -15.4375 C 10.425781 -16.082031 9.628906 -16.40625 8.703125 -16.40625 L 6.796875 -16.40625 L 6.796875 -1.828125 C 6.796875 -1.390625 6.953125 -1.015625 7.265625 -0.703125 C 7.585938 -0.398438 7.96875 -0.25 8.40625 -0.25 L 8.71875 -0.25 L 8.71875 0 L 1.125 0 L 1.125 -0.25 L 1.453125 -0.25 C 1.867188 -0.25 2.234375 -0.398438 2.546875 -0.703125 C 2.867188 -1.003906 3.035156 -1.367188 3.046875 -1.796875 L 3.046875 -15.671875 C 3.035156 -16.109375 2.875 -16.476562 2.5625 -16.78125 C 2.25 -17.09375 1.878906 -17.25 1.453125 -17.25 L 1.125 -17.25 L 1.125 -17.5 L 9.703125 -17.5 C 11.847656 -17.5 13.515625 -17.007812 14.703125 -16.03125 C 15.628906 -15.257812 16.09375 -14.171875 16.09375 -12.765625 C 16.09375 -11.367188 15.640625 -10.234375 14.734375 -9.359375 C 13.828125 -8.484375 12.789062 -8.046875 11.625 -8.046875 C 11.519531 -8.046875 11.410156 -8.054688 11.296875 -8.078125 C 11.984375 -7.710938 12.554688 -7.300781 13.015625 -6.84375 C 13.472656 -6.394531 13.867188 -5.96875 14.203125 -5.5625 C 14.546875 -5.164062 14.835938 -4.8125 15.078125 -4.5 C 15.328125 -4.195312 15.648438 -3.789062 16.046875 -3.28125 C 16.453125 -2.78125 16.867188 -2.253906 17.296875 -1.703125 C 17.734375 -1.148438 18.210938 -0.585938 18.734375 -0.015625 C 19.265625 0.554688 19.847656 1.101562 20.484375 1.625 C 21.128906 2.144531 21.785156 2.570312 22.453125 2.90625 C 23.867188 3.613281 25.425781 3.976562 27.125 4 Z M 27.125 4.25 "/></g></g></g><g fill="#ff3131" fill-opacity="1"><g transform="translate(125.82361, 33.063041)"><g><path d="M 2.34375 -7.09375 C 1.675781 -6.03125 1.34375 -4.941406 1.34375 -3.828125 C 1.34375 -2.609375 1.785156 -1.5 2.671875 -0.5 C 3.160156 0.0625 3.773438 0.5 4.515625 0.8125 C 5.253906 1.132812 6.066406 1.296875 6.953125 1.296875 C 7.835938 1.296875 8.628906 1.128906 9.328125 0.796875 C 10.722656 0.117188 11.421875 -0.992188 11.421875 -2.546875 C 11.421875 -3.128906 11.222656 -3.742188 10.828125 -4.390625 C 10.441406 -5.046875 9.859375 -5.632812 9.078125 -6.15625 L 4.828125 -9 C 3.171875 -10.03125 2.34375 -11.363281 2.34375 -13 C 2.34375 -13.164062 2.351562 -13.332031 2.375 -13.5 C 2.476562 -14.78125 2.988281 -15.820312 3.90625 -16.625 C 4.832031 -17.4375 6.070312 -17.84375 7.625 -17.84375 C 8.570312 -17.84375 9.722656 -17.757812 11.078125 -17.59375 L 12.625 -17.59375 L 12.296875 -13.921875 L 12.078125 -13.921875 C 12.054688 -14.785156 11.71875 -15.476562 11.0625 -16 C 10.414062 -16.53125 9.5625 -16.796875 8.5 -16.796875 C 7.195312 -16.796875 6.253906 -16.40625 5.671875 -15.625 C 5.390625 -15.226562 5.25 -14.796875 5.25 -14.328125 C 5.25 -13.859375 5.390625 -13.460938 5.671875 -13.140625 C 5.953125 -12.816406 6.40625 -12.460938 7.03125 -12.078125 L 11.703125 -9.03125 C 12.648438 -8.40625 13.390625 -7.675781 13.921875 -6.84375 C 14.554688 -5.863281 14.875 -4.859375 14.875 -3.828125 C 14.875 -3.160156 14.734375 -2.453125 14.453125 -1.703125 C 14.179688 -0.960938 13.734375 -0.28125 13.109375 0.34375 C 12.484375 0.976562 11.675781 1.492188 10.6875 1.890625 C 9.707031 2.296875 8.625 2.5 7.4375 2.5 C 6.25 2.5 5.171875 2.289062 4.203125 1.875 C 2.421875 1.125 1.285156 -0.179688 0.796875 -2.046875 C 0.703125 -2.453125 0.65625 -2.867188 0.65625 -3.296875 C 0.65625 -4.703125 1.144531 -6.03125 2.125 -7.28125 Z M 2.34375 -7.09375 "/></g></g></g><g fill="#ff3131" fill-opacity="1"><g transform="translate(140.325737, 33.063041)"><g><path d="M 1.375 -0.25 C 1.8125 -0.25 2.179688 -0.398438 2.484375 -0.703125 C 2.796875 -1.015625 2.957031 -1.390625 2.96875 -1.828125 L 2.96875 -15.75 C 2.925781 -16.332031 2.65625 -16.765625 2.15625 -17.046875 C 1.90625 -17.179688 1.644531 -17.25 1.375 -17.25 L 1.046875 -17.25 L 1.046875 -17.5 L 8.078125 -17.5 C 8.804688 -17.5 9.445312 -17.554688 10 -17.671875 C 10.550781 -17.785156 10.910156 -17.878906 11.078125 -17.953125 L 11.078125 -13.578125 L 10.796875 -13.578125 L 10.796875 -13.875 C 10.816406 -14.625 10.601562 -15.226562 10.15625 -15.6875 C 9.71875 -16.144531 9.125 -16.390625 8.375 -16.421875 L 6.71875 -16.421875 L 6.71875 -9.15625 L 10.703125 -9.15625 C 11.316406 -9.164062 11.820312 -9.375 12.21875 -9.78125 C 12.625 -10.195312 12.828125 -10.703125 12.828125 -11.296875 L 12.828125 -11.53125 L 13.046875 -11.53125 L 13.046875 -5.75 L 12.828125 -5.75 L 12.828125 -5.953125 C 12.828125 -6.566406 12.625 -7.070312 12.21875 -7.46875 C 11.820312 -7.875 11.320312 -8.082031 10.71875 -8.09375 L 6.71875 -8.09375 L 6.71875 -1.078125 L 11.59375 -1.078125 C 12.8125 -1.078125 13.832031 -1.425781 14.65625 -2.125 C 15.488281 -2.820312 16.101562 -3.8125 16.5 -5.09375 L 16.75 -5.09375 L 15.578125 0 L 1.046875 0 L 1.046875 -0.25 Z M 1.375 -0.25 "/></g></g></g><g fill="#ff3131" fill-opacity="1"><g transform="translate(156.003058, 33.063041)"><g/></g></g><g fill="#ff3131" fill-opacity="1"><g transform="translate(161.178647, 33.063041)"><g><path d="M 7.953125 -9.5 C 8.234375 -8.832031 8.816406 -8.5 9.703125 -8.5 C 10.703125 -8.5 11.5 -9 12.09375 -10 C 12.507812 -10.6875 12.71875 -11.550781 12.71875 -12.59375 C 12.71875 -14.144531 12.3125 -15.28125 11.5 -16 C 10.882812 -16.53125 10.101562 -16.796875 9.15625 -16.796875 C 8.9375 -16.796875 8.707031 -16.78125 8.46875 -16.75 L 6.796875 -16.5 L 6.796875 -1.828125 C 6.796875 -1.378906 6.953125 -1.003906 7.265625 -0.703125 C 7.585938 -0.398438 7.96875 -0.25 8.40625 -0.25 L 8.71875 -0.25 L 8.71875 0 L 1.125 0 L 1.125 -0.25 L 1.453125 -0.25 C 1.878906 -0.25 2.25 -0.398438 2.5625 -0.703125 C 2.875 -1.003906 3.035156 -1.378906 3.046875 -1.828125 L 3.046875 -15.15625 C 3.035156 -15.582031 2.90625 -15.921875 2.65625 -16.171875 C 2.414062 -16.421875 2.0625 -16.546875 1.59375 -16.546875 C 1.476562 -16.546875 1.332031 -16.539062 1.15625 -16.53125 L 1.09375 -16.75 C 2.507812 -16.863281 4 -17.054688 5.5625 -17.328125 C 7.125 -17.609375 8.148438 -17.78125 8.640625 -17.84375 C 9.128906 -17.914062 9.628906 -17.953125 10.140625 -17.953125 C 10.648438 -17.953125 11.257812 -17.894531 11.96875 -17.78125 C 12.6875 -17.675781 13.421875 -17.4375 14.171875 -17.0625 C 14.921875 -16.6875 15.53125 -16.132812 16 -15.40625 C 16.476562 -14.601562 16.71875 -13.695312 16.71875 -12.6875 C 16.71875 -11.675781 16.535156 -10.789062 16.171875 -10.03125 C 15.472656 -8.5625 14.273438 -7.625 12.578125 -7.21875 C 12.160156 -7.125 11.765625 -7.078125 11.390625 -7.078125 C 11.015625 -7.078125 10.660156 -7.109375 10.328125 -7.171875 C 9.640625 -7.273438 9.0625 -7.507812 8.59375 -7.875 C 8.132812 -8.238281 7.84375 -8.75 7.71875 -9.40625 Z M 7.953125 -9.5 "/></g></g></g><g fill="#ff3131" fill-opacity="1"><g transform="translate(177.731116, 33.063041)"><g><path d="M 21.34375 3.46875 C 23.082031 3.46875 24.484375 3.128906 25.546875 2.453125 L 25.71875 2.65625 C 24.289062 4.632812 22.507812 5.734375 20.375 5.953125 C 19.925781 6.003906 19.535156 6.03125 19.203125 6.03125 C 18.878906 6.03125 18.503906 6.015625 18.078125 5.984375 C 17.660156 5.960938 17.066406 5.847656 16.296875 5.640625 C 15.535156 5.441406 14.863281 5.238281 14.28125 5.03125 C 13.695312 4.820312 13.019531 4.546875 12.25 4.203125 C 11.476562 3.867188 10.84375 3.570312 10.34375 3.3125 C 9.84375 3.050781 9.25 2.738281 8.5625 2.375 C 7.875 2.019531 7.269531 1.71875 6.75 1.46875 C 6.226562 1.21875 5.726562 1.003906 5.25 0.828125 C 3.882812 0.273438 2.484375 0 1.046875 0 L 1.046875 -0.25 L 1.375 -0.25 C 1.8125 -0.25 2.179688 -0.398438 2.484375 -0.703125 C 2.796875 -1.003906 2.957031 -1.378906 2.96875 -1.828125 L 2.96875 -15.671875 C 2.957031 -16.117188 2.796875 -16.492188 2.484375 -16.796875 C 2.179688 -17.097656 1.8125 -17.25 1.375 -17.25 L 1.046875 -17.25 L 1.046875 -17.5 L 8.65625 -17.5 L 8.625 -17.25 L 8.375 -17.25 C 7.738281 -17.25 7.265625 -16.988281 6.953125 -16.46875 C 6.796875 -16.238281 6.71875 -15.972656 6.71875 -15.671875 L 6.71875 -1.171875 C 6.71875 -0.617188 6.828125 -0.238281 7.046875 -0.03125 C 7.265625 0.175781 7.507812 0.320312 7.78125 0.40625 C 14.039062 2.445312 18.5625 3.46875 21.34375 3.46875 Z M 21.34375 3.46875 "/></g></g></g><g fill="#ff3131" fill-opacity="1"><g transform="translate(187.332431, 33.063041)"><g><path d="M 24.15625 4.578125 C 22.34375 5.492188 20.5 5.644531 18.625 5.03125 C 16.644531 4.394531 14.9375 3.039062 13.5 0.96875 C 12.738281 -0.125 12.082031 -1.394531 11.53125 -2.84375 L 10.734375 -4.96875 L 4.828125 -4.96875 L 3.5 -1.828125 C 3.414062 -1.609375 3.375 -1.429688 3.375 -1.296875 C 3.375 -1.160156 3.40625 -1.015625 3.46875 -0.859375 C 3.53125 -0.703125 3.65625 -0.5625 3.84375 -0.4375 C 4.03125 -0.3125 4.242188 -0.25 4.484375 -0.25 L 4.6875 -0.25 L 4.6875 0 L -0.671875 0 L -0.671875 -0.25 L -0.4375 -0.25 C -0.0625 -0.25 0.3125 -0.359375 0.6875 -0.578125 C 1.0625 -0.804688 1.375 -1.144531 1.625 -1.59375 L 7.203125 -14.328125 C 6.554688 -15.796875 5.863281 -16.800781 5.125 -17.34375 C 4.507812 -17.8125 3.921875 -18.046875 3.359375 -18.046875 C 2.804688 -18.046875 2.289062 -17.960938 1.8125 -17.796875 L 1.75 -18.046875 C 2.957031 -18.660156 4.109375 -18.96875 5.203125 -18.96875 C 6.566406 -18.96875 7.789062 -18.4375 8.875 -17.375 C 9.945312 -16.320312 10.890625 -14.804688 11.703125 -12.828125 L 15.328125 -3.875 C 16.691406 -0.488281 18.09375 1.832031 19.53125 3.09375 C 20.113281 3.613281 20.710938 3.972656 21.328125 4.171875 C 21.941406 4.367188 22.460938 4.46875 22.890625 4.46875 C 23.316406 4.46875 23.726562 4.421875 24.125 4.328125 Z M 5.25 -6.046875 L 10.359375 -6.046875 L 8.609375 -10.671875 C 8.523438 -10.910156 8.40625 -11.234375 8.25 -11.640625 C 8.101562 -12.046875 8.003906 -12.332031 7.953125 -12.5 Z M 5.25 -6.046875 "/></g></g></g><g fill="#ff3131" fill-opacity="1"><g transform="translate(203.884901, 33.063041)"><g><path d="M -1.671875 -18.953125 C -1.410156 -18.960938 -0.988281 -18.96875 -0.40625 -18.96875 C 0.164062 -18.96875 0.921875 -18.847656 1.859375 -18.609375 C 2.804688 -18.367188 3.675781 -17.988281 4.46875 -17.46875 C 5.269531 -16.957031 6.003906 -16.332031 6.671875 -15.59375 C 7.910156 -14.226562 8.878906 -12.585938 9.578125 -10.671875 C 10.578125 -13.523438 11.875 -15.707031 13.46875 -17.21875 C 14.6875 -18.375 16.03125 -18.953125 17.5 -18.953125 C 17.5625 -18.953125 17.628906 -18.953125 17.703125 -18.953125 L 17.703125 -18.703125 C 16.867188 -18.679688 16.003906 -18.238281 15.109375 -17.375 C 14.222656 -16.519531 13.445312 -15.484375 12.78125 -14.265625 C 12.113281 -13.054688 11.550781 -11.789062 11.09375 -10.46875 C 10.632812 -9.15625 10.363281 -8.015625 10.28125 -7.046875 L 10.28125 -1.828125 C 10.28125 -1.410156 10.429688 -1.039062 10.734375 -0.71875 C 11.046875 -0.40625 11.425781 -0.25 11.875 -0.25 L 12.203125 -0.25 L 12.203125 0 L 4.59375 0 L 4.59375 -0.25 L 4.921875 -0.25 C 5.359375 -0.25 5.726562 -0.398438 6.03125 -0.703125 C 6.34375 -1.015625 6.507812 -1.390625 6.53125 -1.828125 L 6.53125 -7.078125 C 6.320312 -8.878906 5.71875 -10.785156 4.71875 -12.796875 C 3.570312 -15.128906 2.28125 -16.789062 0.84375 -17.78125 C 0.0078125 -18.363281 -0.828125 -18.671875 -1.671875 -18.703125 Z M -1.671875 -18.953125 "/></g></g></g></svg>